<svg width="20" height="20" viewBox="0 0 20 20" fill="none" xmlns="http://www.w3.org/2000/svg">
<path fill-rule="evenodd" clip-rule="evenodd" d="M1.66675 10.0001C1.66675 7.35914 1.66675 6.03867 2.11082 5.00167C2.6672 3.7024 3.7024 2.6672 5.00167 2.11082C6.03867 1.66675 7.35914 1.66675 10.0001 1.66675C12.641 1.66675 13.9615 1.66675 14.9985 2.11082C16.2978 2.6672 17.333 3.7024 17.8893 5.00167C18.3334 6.03867 18.3334 7.35914 18.3334 10.0001C18.3334 12.641 18.3334 13.9615 17.8893 14.9985C17.333 16.2978 16.2978 17.333 14.9985 17.8893C13.9615 18.3334 12.641 18.3334 10.0001 18.3334C7.35914 18.3334 6.03867 18.3334 5.00167 17.8893C3.7024 17.333 2.6672 16.2978 2.11082 14.9985C1.66675 13.9615 1.66675 12.641 1.66675 10.0001ZM10.0001 5.5883C7.56367 5.5883 5.5883 7.56367 5.5883 10.0001C5.5883 12.4365 7.56367 14.4118 10.0001 14.4118C12.4365 14.4118 14.4118 12.4365 14.4118 10.0001C14.4118 7.56367 12.4365 5.5883 10.0001 5.5883ZM10.0001 12.7574C8.48022 12.7574 7.24272 11.5199 7.24272 10.0001C7.24272 8.47911 8.48022 7.24272 10.0001 7.24272C11.5199 7.24272 12.7574 8.47911 12.7574 10.0001C12.7574 11.5199 11.5199 12.7574 10.0001 12.7574ZM15.3306 5.25743C15.3306 5.5821 15.0674 5.8453 14.7427 5.8453C14.4181 5.8453 14.1549 5.5821 14.1549 5.25743C14.1549 4.93276 14.4181 4.66956 14.7427 4.66956C15.0674 4.66956 15.3306 4.93276 15.3306 5.25743Z" fill="white" fill-opacity="0.6"/>
</svg>
